<svg width="24" height="24" viewBox="0 0 24 24" fill="none" xmlns="http://www.w3.org/2000/svg">
<mask id="mask0_236_532" style="mask-type:luminance" maskUnits="userSpaceOnUse" x="0" y="0" width="24" height="24">
<path d="M24 0H0V24H24V0Z" fill="white"/>
</mask>
<g mask="url(#mask0_236_532)">
<path d="M5.5 11C2.4624 11 0 8.538 0 5.5C0 2.462 2.4624 0 5.5 0C8.538 0 11 2.462 11 5.5C10.997 8.536 8.536 10.997 5.5 11ZM5.5 3C4.119 3 3 4.119 3 5.5C3 6.881 4.119 8 5.5 8C6.881 8 8 6.881 8 5.5C8 4.119 6.881 3 5.5 3Z" fill="white"/>
<path d="M18.5 11C15.462 11 13 8.538 13 5.5C13 2.462 15.462 0 18.5 0C21.538 0 24 2.462 24 5.5C23.997 8.536 21.536 10.997 18.5 11ZM18.5 3C17.119 3 16 4.119 16 5.5C16 6.881 17.119 8 18.5 8C19.881 8 21 6.881 21 5.5C21 4.119 19.881 3 18.5 3Z" fill="white"/>
<path d="M5.5 24C2.4624 24 0 21.538 0 18.5C0 15.462 2.4624 13 5.5 13C8.538 13 11 15.462 11 18.5C10.997 21.536 8.536 23.997 5.5 24ZM5.5 16C4.119 16 3 17.119 3 18.5C3 19.881 4.119 21 5.5 21C6.881 21 8 19.881 8 18.5C8 17.119 6.881 16 5.5 16Z" fill="white"/>
<path d="M18.5 24C15.462 24 13 21.538 13 18.5C13 15.462 15.462 13 18.5 13C21.538 13 24 15.462 24 18.5C23.997 21.536 21.536 23.997 18.5 24ZM18.5 16C17.119 16 16 17.119 16 18.5C16 19.881 17.119 21 18.5 21C19.881 21 21 19.881 21 18.5C21 17.119 19.881 16 18.5 16Z" fill="white"/>
</g>
</svg>
